<svg xmlns="http://www.w3.org/2000/svg" xmlns:xlink="http://www.w3.org/1999/xlink" width="20" height="20" viewBox="0 0 20 20"><path fill="var(--gray3, #e1e5e8)" fill-rule="evenodd" d="M14.46 11.855a.308.308 0 0 0-.089-.205l-4.16-4.16a.308.308 0 0 0-.206-.09.308.308 0 0 0-.205.09l-4.16 4.16a.308.308 0 0 0-.09.205c0 .072.036.152.09.206l.446.446c.053.054.134.09.205.09a.308.308 0 0 0 .205-.09l3.51-3.509 3.508 3.51c.054.053.134.088.206.088a.29.29 0 0 0 .205-.089l.446-.446a.308.308 0 0 0 .09-.206z"/></svg>