<svg xmlns="http://www.w3.org/2000/svg" xmlns:xlink="http://www.w3.org/1999/xlink" width="20" height="20" viewBox="0 0 20 20"><path fill="var(--gray7, #4d6272)" fill-rule="evenodd" d="M14.46 8.141a.308.308 0 0 0-.089-.205l-.446-.447a.308.308 0 0 0-.205-.089.308.308 0 0 0-.206.09l-3.509 3.508L6.496 7.49a.308.308 0 0 0-.205-.089.29.29 0 0 0-.205.09l-.447.446a.308.308 0 0 0-.089.205c0 .072.036.152.09.205l4.16 4.161c.054.054.134.09.205.09a.308.308 0 0 0 .206-.09l4.16-4.16a.308.308 0 0 0 .09-.206z"/></svg>