<svg xmlns="http://www.w3.org/2000/svg" xmlns:xlink="http://www.w3.org/1999/xlink" width="20" height="20" viewBox="0 0 20 20"><path fill="var(--gray7, #4d6272)" fill-rule="evenodd" d="M12.596 9.955a.308.308 0 0 0-.089-.205l-4.16-4.16a.308.308 0 0 0-.206-.09.308.308 0 0 0-.205.09l-.447.446a.308.308 0 0 0-.089.205c0 .072.036.152.09.205l3.508 3.51-3.509 3.508a.308.308 0 0 0-.089.206c0 .08.036.151.09.205l.446.446c.053.054.134.09.205.09a.308.308 0 0 0 .205-.09l4.161-4.16a.308.308 0 0 0 .09-.206z"/></svg>